<!DOCTYPE svg PUBLIC "-//W3C//DTD SVG 20010904//EN" "http://www.w3.org/TR/2001/REC-SVG-20010904/DTD/svg10.dtd">
<svg version="1.0" xmlns="http://www.w3.org/2000/svg" width="352px" height="123px" viewBox="0 0 3520 1230" preserveAspectRatio="xMidYMid meet">
<g id="layer101" fill="#000000" stroke="none">
 <path d="M0 615 l0 -615 1760 0 1760 0 0 615 0 615 -1760 0 -1760 0 0 -615z"/>
 </g>
<g id="layer102" fill="#71706f" stroke="none">
 <path d="M1110 1197 c-95 -48 -93 -238 2 -270 21 -6 37 -4 65 10 31 15 41 28 55 68 l17 50 1 -51 c0 -59 16 -79 57 -71 15 3 38 1 51 -4 28 -11 82 13 82 36 0 8 5 15 10 15 6 0 10 -6 10 -13 0 -40 69 -125 91 -111 5 3 9 20 9 39 0 20 6 35 15 39 9 3 15 19 15 41 0 24 -4 35 -15 35 -12 0 -15 13 -15 55 0 40 4 55 14 55 17 0 28 51 14 68 -15 17 -73 15 -89 -4 -7 -9 -16 -52 -19 -97 -3 -50 -10 -82 -17 -84 -9 -3 -13 22 -15 94 -3 94 -4 98 -26 101 -42 6 -52 -13 -52 -105 0 -75 -2 -84 -17 -81 -15 3 -19 18 -23 93 -5 85 -6 90 -28 93 -36 5 -52 -15 -52 -65 0 -37 -3 -44 -16 -39 -9 3 -36 6 -60 6 -26 0 -44 5 -44 11 0 8 17 10 56 5 54 -6 55 -6 49 16 -11 33 -26 49 -62 65 -39 16 -32 16 -63 0z m48 -179 c-3 -7 -11 -13 -18 -13 -7 0 -15 6 -17 13 -3 7 4 12 17 12 13 0 20 -5 18 -12z"/>
 <path d="M791 1186 c-8 -9 -11 -65 -9 -177 l3 -164 67 -3 c86 -4 127 7 152 42 29 39 28 106 -1 138 l-23 24 34 64 c38 71 35 90 -14 90 -31 0 -49 -18 -78 -76 -11 -22 -28 -46 -36 -53 -14 -12 -16 -7 -16 46 0 33 -5 64 -12 71 -16 16 -53 15 -67 -2z m149 -236 c0 -16 -7 -20 -35 -20 -28 0 -35 4 -35 20 0 16 7 20 35 20 28 0 35 -4 35 -20z"/>
 <path d="M1682 1187 c-8 -10 2 -55 41 -172 28 -88 56 -163 62 -168 5 -4 23 -6 39 -5 28 3 31 7 84 171 60 180 60 186 4 187 -18 0 -27 -9 -39 -40 -15 -38 -18 -40 -58 -40 -38 0 -44 3 -50 27 -4 16 -11 34 -17 40 -14 17 -53 17 -66 0z m146 -164 c-4 -22 -22 -20 -26 1 -2 10 3 16 13 16 10 0 15 -7 13 -17z"/>
 <path d="M2140 1183 c-60 -31 -80 -73 -80 -168 0 -96 21 -138 84 -169 32 -16 44 -17 76 -7 41 12 90 61 90 90 0 41 -73 60 -85 22 -9 -29 -43 -36 -66 -15 -24 22 -27 118 -3 152 22 32 53 28 65 -8 12 -33 42 -40 74 -16 17 12 17 16 3 52 -28 70 -96 99 -158 67z"/>
 <path d="M2339 1172 c-24 -31 -22 -91 5 -121 14 -15 13 -18 -4 -29 -32 -20 6 -84 57 -97 33 -8 91 12 103 35 6 10 10 59 10 109 0 137 19 123 22 -16 l3 -118 35 0 c19 0 40 -4 47 -8 6 -4 23 -3 38 3 24 9 27 14 21 41 -3 18 -6 38 -6 46 0 9 -9 13 -27 11 l-28 -3 -5 85 c-5 84 -5 85 -33 88 -16 2 -34 -2 -42 -8 -7 -6 -16 -7 -19 -2 -3 5 -39 9 -81 10 -70 1 -76 -1 -96 -26z m99 -70 c3 -9 -2 -13 -14 -10 -9 1 -19 9 -22 16 -3 9 2 13 14 10 9 -1 19 -9 22 -16z m-13 -92 c-3 -5 -10 -10 -16 -10 -5 0 -9 5 -9 10 0 6 7 10 16 10 8 0 12 -4 9 -10z"/>
 <path d="M3210 893 c1 -5 7 -19 15 -33 8 -14 14 -31 15 -37 0 -10 -294 -13 -1435 -13 l-1435 0 -92 -190 c-80 -167 -94 -190 -115 -190 -23 0 -23 1 -23 109 0 128 -4 134 -82 129 l-53 -3 -3 -333 -2 -332 153 0 c129 0 158 3 187 18 80 43 115 194 70 300 -14 31 -35 61 -54 74 -17 12 -32 22 -34 24 -5 3 102 214 110 214 4 0 53 -142 109 -315 l103 -315 65 0 66 0 107 322 c121 362 121 354 31 345 -29 -3 -56 -8 -61 -11 -5 -3 -17 -35 -27 -71 l-19 -66 -96 3 -95 3 -20 62 c-11 34 -25 67 -32 74 -6 6 -33 10 -62 8 -36 -3 -51 0 -51 9 0 9 306 12 1496 12 1191 0 1495 3 1492 13 -2 6 -25 54 -52 105 l-48 92 -64 0 c-35 0 -64 -3 -64 -7z m-2463 -545 c-24 -94 -31 -118 -37 -118 -8 0 -40 100 -40 123 0 13 9 17 41 17 38 0 41 -2 36 -22z m-477 -88 c11 -11 20 -33 20 -48 0 -42 -31 -65 -95 -70 l-55 -4 0 71 0 71 55 0 c42 0 60 -5 75 -20z"/>
 <path d="M1173 664 c-10 -4 -13 -41 -13 -136 l0 -131 -99 -192 c-55 -106 -97 -195 -94 -199 4 -3 37 -6 75 -6 l68 0 55 110 c30 61 58 110 60 110 3 0 29 -49 57 -110 l51 -110 288 0 289 0 0 70 0 70 -75 0 -75 0 0 254 c0 207 -3 256 -14 265 -8 7 -37 11 -68 9 l-53 -3 -3 -262 -2 -263 -75 0 -75 0 0 -42 c0 -25 -4 -38 -9 -32 -5 5 -45 79 -90 165 l-81 156 0 136 c0 99 -3 136 -12 139 -20 7 -91 8 -105 2z"/>
 <path d="M1960 656 c-6 -6 -10 -132 -10 -333 l0 -323 65 0 64 0 3 123 3 122 87 3 87 3 3 -123 3 -123 65 0 65 0 3 319 c2 227 -1 323 -9 332 -6 8 -30 14 -54 14 -77 0 -75 4 -75 -146 l0 -134 -79 0 c-119 0 -112 -9 -110 144 l1 131 -51 0 c-28 1 -56 -4 -61 -9z"/>
 <path d="M2493 663 c-10 -4 -13 -80 -13 -334 l0 -329 208 2 207 3 0 65 0 65 -137 3 -138 3 0 54 0 54 128 3 127 3 0 65 0 65 -127 3 -128 3 0 64 0 64 143 3 142 3 3 58 c2 35 -2 64 -9 73 -9 11 -49 14 -203 13 -105 0 -197 -3 -203 -6z"/>
 <path d="M2976 662 c-5 -8 -8 -223 -7 -504 l1 -158 169 0 c158 0 170 1 201 23 57 38 74 70 78 146 5 89 -10 132 -59 175 l-40 34 27 38 c14 22 48 82 75 136 57 114 54 121 -41 116 l-63 -3 -63 -115 c-68 -123 -92 -150 -130 -150 l-24 0 0 129 c0 108 -3 130 -16 135 -23 9 -102 7 -108 -2z m292 -424 c7 -7 12 -27 12 -45 0 -43 -21 -53 -109 -53 l-71 0 0 55 0 55 78 0 c47 0 83 -5 90 -12z"/>
 </g>
<g id="layer103" fill="#b1b1b0" stroke="none">
 <path d="M791 1186 c-8 -9 -11 -65 -9 -177 l3 -164 67 -3 c86 -4 127 7 152 42 29 38 28 106 -1 138 l-23 24 32 60 c36 69 33 94 -10 94 -33 0 -51 -17 -80 -76 -11 -22 -28 -46 -36 -53 -14 -12 -16 -7 -16 46 0 33 -5 64 -12 71 -16 16 -53 15 -67 -2z m149 -236 c0 -16 -7 -20 -35 -20 -28 0 -35 4 -35 20 0 16 7 20 35 20 28 0 35 -4 35 -20z"/>
 <path d="M1083 1178 c-34 -37 -43 -64 -43 -121 0 -101 64 -156 137 -120 31 15 41 28 55 68 l17 50 1 -51 c0 -59 16 -79 57 -71 15 3 38 1 51 -4 28 -11 82 13 82 36 0 8 5 15 10 15 6 0 10 -7 10 -15 0 -35 54 -105 82 -105 14 0 18 8 18 34 0 21 6 36 15 40 9 3 15 19 15 41 0 24 -4 35 -15 35 -12 0 -15 13 -15 55 0 40 4 55 14 55 17 0 28 51 14 68 -15 17 -73 15 -89 -4 -7 -9 -16 -52 -19 -97 -3 -50 -10 -82 -17 -84 -9 -3 -13 22 -15 94 -3 94 -4 98 -26 101 -42 6 -52 -13 -52 -105 0 -75 -2 -84 -17 -81 -15 3 -19 18 -23 93 -5 85 -6 90 -28 93 -36 5 -52 -15 -52 -65 0 -37 -3 -44 -16 -39 -9 3 -36 6 -60 6 -26 0 -44 5 -44 11 0 8 17 10 56 5 54 -6 55 -6 49 16 -11 38 -52 68 -94 68 -26 0 -44 -7 -58 -22z m75 -160 c-3 -7 -11 -13 -18 -13 -7 0 -15 6 -17 13 -3 7 4 12 17 12 13 0 20 -5 18 -12z"/>
 <path d="M1682 1187 c-8 -10 2 -55 41 -172 28 -88 56 -163 62 -168 5 -4 23 -6 39 -5 28 3 31 7 84 171 60 180 60 186 4 187 -18 0 -27 -9 -39 -40 -15 -38 -18 -40 -58 -40 -38 0 -44 3 -50 27 -4 16 -11 34 -17 40 -14 17 -53 17 -66 0z m146 -164 c-4 -22 -22 -20 -26 1 -2 10 3 16 13 16 10 0 15 -7 13 -17z"/>
 <path d="M2140 1183 c-60 -31 -80 -73 -80 -168 0 -96 21 -138 84 -169 34 -16 42 -17 78 -5 65 21 107 86 76 117 -20 20 -66 15 -73 -7 -9 -29 -43 -36 -66 -15 -24 22 -27 118 -3 152 22 32 53 28 65 -8 12 -34 47 -41 73 -14 19 19 19 14 1 58 -27 64 -95 90 -155 59z"/>
 <path d="M2339 1172 c-24 -31 -22 -91 5 -121 14 -15 13 -18 -4 -29 -32 -20 6 -84 57 -97 33 -8 91 12 103 35 6 10 10 59 10 109 0 137 19 123 22 -16 l3 -118 35 0 c19 0 40 -4 47 -8 6 -4 23 -3 38 3 24 9 27 14 21 41 -3 18 -6 38 -6 46 0 9 -9 13 -27 11 l-28 -3 -5 85 c-5 84 -5 85 -33 88 -16 2 -34 -2 -42 -8 -7 -6 -16 -7 -19 -2 -3 5 -39 9 -81 10 -70 1 -76 -1 -96 -26z m99 -70 c3 -9 -2 -13 -14 -10 -9 1 -19 9 -22 16 -3 9 2 13 14 10 9 -1 19 -9 22 -16z m-13 -92 c-3 -5 -10 -10 -16 -10 -5 0 -9 5 -9 10 0 6 7 10 16 10 8 0 12 -4 9 -10z"/>
 <path d="M3210 893 c1 -5 7 -19 15 -33 8 -14 14 -31 15 -37 0 -10 -294 -13 -1435 -13 l-1435 0 -92 -190 c-80 -167 -94 -190 -115 -190 -23 0 -23 1 -23 109 0 128 -4 134 -82 129 l-53 -3 -3 -333 -2 -332 153 0 c129 0 158 3 187 18 80 43 115 194 70 300 -14 31 -35 61 -54 74 -17 12 -32 22 -34 24 -5 3 102 214 110 214 4 0 53 -142 110 -315 l102 -316 66 3 65 3 107 319 c82 241 105 322 97 332 -11 13 -106 13 -126 1 -5 -4 -18 -36 -28 -72 l-19 -66 -96 3 -95 3 -20 62 c-11 34 -25 67 -32 74 -6 6 -33 10 -62 8 -36 -3 -51 0 -51 9 0 9 306 12 1496 12 1191 0 1495 3 1492 13 -2 6 -25 54 -52 105 l-48 92 -64 0 c-35 0 -64 -3 -64 -7z m-2463 -545 c-24 -94 -31 -118 -37 -118 -8 0 -40 100 -40 123 0 13 9 17 41 17 38 0 41 -2 36 -22z m-477 -88 c11 -11 20 -33 20 -48 0 -42 -31 -65 -95 -70 l-55 -4 0 71 0 71 55 0 c42 0 60 -5 75 -20z"/>
 <path d="M1173 664 c-10 -4 -13 -41 -13 -136 l0 -131 -99 -192 c-55 -106 -97 -195 -94 -199 4 -3 37 -6 75 -6 l68 0 55 110 c31 61 59 109 63 106 4 -2 30 -52 56 -110 l49 -106 289 0 288 0 0 70 0 70 -75 0 -75 0 0 254 c0 207 -3 256 -14 265 -8 7 -37 11 -68 9 l-53 -3 -3 -262 -2 -263 -75 0 -75 0 0 -42 c0 -25 -4 -38 -9 -32 -5 5 -45 79 -90 165 l-81 156 0 136 c0 99 -3 136 -12 139 -20 7 -91 8 -105 2z"/>
 <path d="M1971 658 c-21 -7 -21 -13 -21 -333 l0 -325 65 0 64 0 3 122 3 123 87 3 87 3 3 -123 3 -123 65 0 65 0 3 319 c1 196 -1 323 -7 330 -8 10 -75 13 -123 7 -5 -1 -8 -62 -8 -136 l0 -135 -79 0 c-119 0 -112 -9 -110 144 l1 131 -40 0 c-23 1 -50 -3 -61 -7z"/>
 <path d="M2493 663 c-10 -4 -13 -80 -13 -334 l0 -329 208 2 207 3 3 44 c7 93 10 91 -143 91 l-135 0 0 55 0 54 128 3 127 3 0 65 0 65 -127 3 -128 3 0 64 0 64 143 3 142 3 3 58 c2 35 -2 64 -9 73 -9 11 -49 14 -203 13 -105 0 -197 -3 -203 -6z"/>
 <path d="M2983 663 c-10 -4 -13 -80 -13 -334 l0 -330 174 3 c158 3 177 5 202 24 52 39 68 70 72 143 5 89 -10 132 -59 175 l-40 34 25 37 c14 20 48 81 75 135 60 115 57 123 -39 118 l-63 -3 -63 -115 c-68 -123 -92 -150 -130 -150 l-24 0 0 129 c0 108 -3 130 -16 135 -18 7 -83 7 -101 -1z m285 -425 c7 -7 12 -27 12 -45 0 -43 -21 -53 -109 -53 l-71 0 0 55 0 55 78 0 c47 0 83 -5 90 -12z"/>
 </g>
<g id="layer104" fill="#d6d4d0" stroke="none">
 <path d="M791 1186 c-8 -9 -11 -65 -9 -177 l3 -164 67 -3 c86 -4 127 7 152 42 29 38 28 106 -1 138 l-23 24 32 60 c36 69 33 94 -10 94 -33 0 -51 -17 -80 -76 -11 -22 -28 -46 -36 -53 -14 -12 -16 -8 -16 38 0 29 -5 61 -10 72 -12 22 -52 25 -69 5z m149 -236 c0 -16 -7 -20 -35 -20 -28 0 -35 4 -35 20 0 16 7 20 35 20 28 0 35 -4 35 -20z"/>
 <path d="M1083 1178 c-34 -37 -43 -64 -43 -121 0 -101 64 -156 137 -120 31 15 41 28 55 68 l17 50 1 -51 c0 -59 16 -79 57 -71 15 3 38 1 51 -4 30 -12 77 12 87 43 7 22 7 22 12 3 12 -56 56 -115 85 -115 14 0 18 8 18 34 0 21 6 36 15 40 9 3 15 19 15 41 0 24 -4 35 -15 35 -12 0 -15 13 -15 55 0 40 4 55 14 55 17 0 28 51 14 68 -15 17 -73 15 -89 -4 -7 -9 -16 -52 -19 -97 -3 -50 -10 -82 -17 -84 -9 -3 -13 22 -15 94 -3 94 -4 98 -26 101 -42 6 -52 -13 -52 -105 0 -75 -2 -84 -17 -81 -15 3 -19 18 -23 93 -5 85 -6 90 -28 93 -36 5 -52 -15 -52 -65 0 -37 -3 -44 -16 -39 -9 3 -36 6 -60 6 -26 0 -44 5 -44 11 0 8 17 10 56 5 54 -6 55 -6 49 16 -11 38 -52 68 -94 68 -26 0 -44 -7 -58 -22z m75 -160 c-3 -7 -11 -13 -18 -13 -7 0 -15 6 -17 13 -3 7 4 12 17 12 13 0 20 -5 18 -12z"/>
 <path d="M1682 1187 c-8 -10 2 -55 41 -172 28 -88 56 -163 62 -168 5 -4 23 -6 39 -5 28 3 31 8 82 163 29 88 54 165 54 172 0 15 -35 26 -59 18 -11 -3 -25 -21 -31 -40 -11 -33 -14 -35 -55 -35 -38 0 -44 3 -50 27 -4 16 -11 34 -17 40 -14 17 -53 17 -66 0z m146 -164 c-4 -22 -22 -20 -26 1 -2 10 3 16 13 16 10 0 15 -7 13 -17z"/>
 <path d="M2140 1183 c-60 -31 -80 -73 -80 -168 0 -96 21 -138 84 -169 34 -16 42 -17 78 -5 65 21 107 86 76 117 -20 20 -66 15 -73 -7 -9 -29 -43 -36 -66 -15 -24 22 -27 118 -3 152 22 32 53 28 65 -8 12 -34 47 -41 73 -14 19 19 19 14 1 58 -27 64 -95 90 -155 59z"/>
 <path d="M2340 1172 c-25 -31 -23 -91 4 -121 14 -15 13 -18 -4 -29 -32 -20 6 -84 57 -97 33 -8 91 12 103 35 6 10 10 59 10 109 0 137 19 123 22 -16 l3 -118 35 0 c19 0 40 -4 47 -8 6 -4 23 -3 38 3 24 9 27 14 21 41 -3 18 -6 38 -6 46 0 9 -9 13 -27 11 l-28 -3 -5 85 c-5 84 -5 85 -33 88 -16 2 -34 -1 -41 -7 -7 -6 -16 -8 -20 -4 -4 4 -40 9 -81 10 -70 2 -75 1 -95 -25z m98 -70 c3 -9 -2 -13 -14 -10 -9 1 -19 9 -22 16 -3 9 2 13 14 10 9 -1 19 -9 22 -16z m-13 -92 c-3 -5 -10 -10 -16 -10 -5 0 -9 5 -9 10 0 6 7 10 16 10 8 0 12 -4 9 -10z"/>
 <path d="M3210 893 c1 -5 7 -19 15 -33 8 -14 14 -31 15 -37 0 -10 -294 -13 -1435 -13 l-1435 0 -92 -190 c-80 -167 -94 -190 -115 -190 -23 0 -23 1 -23 109 0 128 -4 134 -82 129 l-53 -3 -3 -333 -2 -332 153 0 c129 0 158 3 187 18 80 43 115 194 70 300 -14 31 -35 61 -54 74 -17 12 -32 22 -34 24 -5 3 102 214 110 214 4 0 53 -142 110 -315 l102 -316 65 3 66 3 107 319 c74 217 105 323 98 331 -10 12 -109 13 -127 2 -5 -3 -18 -36 -28 -72 l-19 -66 -96 3 -95 3 -20 62 c-11 34 -25 67 -32 74 -6 6 -33 10 -62 8 -36 -3 -51 0 -51 9 0 9 306 12 1496 12 1191 0 1495 3 1492 13 -2 6 -25 54 -52 105 l-48 92 -64 0 c-35 0 -64 -3 -64 -7z m-2463 -545 c-24 -94 -31 -118 -37 -118 -8 0 -40 100 -40 123 0 13 9 17 41 17 38 0 41 -2 36 -22z m-477 -88 c11 -11 20 -33 20 -48 0 -42 -31 -65 -95 -70 l-55 -4 0 71 0 71 55 0 c42 0 60 -5 75 -20z"/>
 <path d="M1173 664 c-10 -4 -13 -41 -13 -135 l0 -129 -59 -119 c-33 -65 -57 -121 -54 -125 4 -3 1 -6 -5 -6 -14 0 -84 -135 -75 -144 4 -3 37 -6 75 -6 l68 0 55 110 c31 61 59 109 63 106 4 -2 30 -52 56 -110 l49 -106 289 0 288 0 0 70 0 70 -75 0 -75 0 0 254 c0 207 -3 256 -14 265 -8 7 -37 11 -68 9 l-53 -3 -3 -262 -2 -263 -75 0 -75 0 0 -42 c0 -25 -4 -38 -9 -32 -5 5 -45 79 -90 165 l-81 156 0 135 c0 100 -3 137 -12 140 -20 7 -91 8 -105 2z"/>
 <path d="M1973 659 l-23 -8 0 -326 0 -325 65 0 64 0 3 122 3 123 87 3 87 3 3 -123 3 -123 65 0 65 0 3 319 c1 187 -2 323 -7 330 -7 9 -75 13 -123 7 -5 -1 -8 -62 -8 -136 l0 -135 -82 0 c-46 0 -89 4 -96 9 -10 6 -12 38 -10 134 l3 127 -25 1 c-14 0 -32 2 -40 3 -8 2 -25 0 -37 -5z"/>
 <path d="M2493 663 c-10 -4 -13 -80 -13 -334 l0 -329 208 2 207 3 3 44 c7 93 10 91 -143 91 l-135 0 0 55 0 54 128 3 127 3 3 44 c7 92 9 91 -133 91 l-125 0 0 65 0 64 143 3 142 3 3 58 c2 35 -2 64 -9 73 -9 11 -49 14 -203 13 -105 0 -197 -3 -203 -6z"/>
 <path d="M2983 663 c-10 -4 -13 -80 -13 -334 l0 -330 174 3 c158 3 177 5 202 24 52 39 68 70 72 143 5 89 -10 132 -60 175 l-40 35 29 43 c16 24 50 84 76 134 55 109 52 117 -43 112 l-63 -3 -63 -114 c-76 -136 -88 -151 -126 -151 l-28 0 0 129 c0 108 -3 130 -16 135 -18 7 -83 7 -101 -1z m285 -425 c7 -7 12 -27 12 -45 0 -43 -21 -53 -109 -53 l-71 0 0 55 0 55 78 0 c47 0 83 -5 90 -12z"/>
 </g>
<g id="layer105" fill="#ffffff" stroke="none">
 <path d="M791 1186 c-8 -9 -11 -65 -9 -177 l3 -164 67 -3 c86 -4 127 7 152 42 29 38 28 106 -1 138 l-23 24 32 60 c36 69 33 94 -10 94 -33 0 -51 -17 -80 -76 -11 -22 -28 -46 -36 -53 -14 -12 -16 -8 -16 38 0 29 -5 61 -10 72 -12 22 -52 25 -69 5z m149 -236 c0 -16 -7 -20 -35 -20 -28 0 -35 4 -35 20 0 16 7 20 35 20 28 0 35 -4 35 -20z"/>
 <path d="M1083 1178 c-34 -37 -43 -64 -43 -121 0 -101 64 -156 137 -120 31 15 41 28 55 68 l17 50 1 -51 c0 -59 16 -79 57 -71 15 3 38 1 51 -4 30 -12 77 12 87 43 7 22 7 22 12 3 9 -40 34 -85 56 -100 34 -24 47 -19 47 19 0 21 6 36 15 40 9 3 15 19 15 41 0 24 -4 35 -15 35 -12 0 -15 13 -15 55 0 40 4 55 14 55 17 0 28 51 14 68 -15 17 -73 15 -89 -4 -7 -9 -16 -52 -19 -97 -3 -50 -10 -82 -17 -84 -9 -3 -13 22 -15 94 -3 94 -4 98 -26 101 -42 6 -52 -13 -52 -105 0 -75 -2 -84 -17 -81 -15 3 -19 18 -23 93 -5 85 -6 90 -28 93 -36 5 -52 -15 -52 -65 0 -37 -3 -44 -16 -39 -9 3 -36 6 -60 6 -25 0 -44 5 -44 11 0 7 19 10 53 7 47 -3 52 -1 49 17 -5 34 -49 65 -91 65 -26 0 -44 -7 -58 -22z m75 -160 c-3 -7 -11 -13 -18 -13 -7 0 -15 6 -17 13 -3 7 4 12 17 12 13 0 20 -5 18 -12z"/>
 <path d="M1681 1187 c-8 -10 -4 -34 16 -93 14 -43 29 -81 32 -84 3 -3 6 -9 6 -15 0 -5 9 -40 19 -78 15 -54 24 -69 42 -73 50 -13 55 -5 110 161 29 88 54 165 54 171 0 14 -43 26 -64 18 -8 -3 -20 -21 -26 -40 -11 -32 -14 -34 -55 -34 -38 0 -44 3 -50 27 -4 16 -11 34 -17 40 -14 17 -53 17 -67 0z m147 -164 c-4 -22 -22 -20 -26 1 -2 10 3 16 13 16 10 0 15 -7 13 -17z"/>
 <path d="M2140 1183 c-60 -31 -80 -73 -80 -168 0 -96 21 -138 84 -169 34 -16 42 -17 78 -5 65 21 107 86 76 117 -20 20 -66 15 -73 -7 -9 -29 -43 -36 -66 -15 -24 22 -27 118 -3 152 22 32 53 28 65 -8 12 -34 47 -41 73 -14 19 19 19 14 1 58 -27 64 -95 90 -155 59z"/>
 <path d="M2340 1172 c-25 -31 -23 -91 4 -121 14 -15 13 -18 -4 -29 -33 -20 7 -85 60 -97 39 -9 98 18 104 47 7 32 12 218 6 219 -3 0 -37 3 -77 5 -68 4 -73 3 -93 -24z m98 -70 c3 -9 -2 -13 -14 -10 -9 1 -19 9 -22 16 -3 9 2 13 14 10 9 -1 19 -9 22 -16z m-13 -92 c-3 -5 -10 -10 -16 -10 -5 0 -9 5 -9 10 0 6 7 10 16 10 8 0 12 -4 9 -10z"/>
 <path d="M2535 1191 c-6 -6 -8 -58 -5 -133 l5 -123 35 0 c19 0 40 -4 47 -8 6 -4 23 -3 38 3 22 8 26 15 21 33 -3 12 -6 32 -6 45 0 19 -5 22 -27 20 l-28 -3 -5 85 -5 85 -30 3 c-17 2 -35 -2 -40 -7z"/>
 <path d="M3210 893 c1 -5 7 -19 15 -33 8 -14 14 -31 15 -37 0 -10 -294 -13 -1435 -13 l-1435 0 -92 -190 c-80 -167 -94 -190 -115 -190 -23 0 -23 1 -23 109 0 128 -4 134 -82 129 l-53 -3 -3 -333 -2 -332 153 0 c129 0 158 3 187 18 80 43 115 194 70 300 -14 31 -35 61 -54 74 -17 12 -32 22 -34 24 -5 3 102 214 110 214 4 0 53 -142 110 -315 l102 -316 65 3 66 3 107 319 c74 217 105 323 98 331 -10 12 -109 13 -127 2 -5 -3 -18 -36 -28 -72 l-19 -66 -96 3 -95 3 -19 60 c-10 32 -24 65 -31 71 -7 7 -34 11 -63 10 -37 -1 -52 2 -52 11 0 11 288 13 1496 13 1191 0 1495 3 1492 13 -2 6 -25 54 -52 105 l-48 92 -64 0 c-35 0 -64 -3 -64 -7z m-2460 -533 c0 -19 -35 -130 -41 -130 -7 0 -39 101 -39 123 0 13 9 17 40 17 22 0 40 -5 40 -10z m-480 -100 c11 -11 20 -33 20 -48 0 -42 -31 -65 -95 -70 l-55 -4 0 71 0 71 55 0 c42 0 60 -5 75 -20z"/>
 <path d="M1173 664 c-10 -4 -13 -41 -13 -135 l0 -129 -59 -119 c-33 -65 -57 -121 -54 -125 4 -3 1 -6 -5 -6 -14 0 -84 -135 -75 -144 4 -3 37 -6 75 -6 l68 0 55 110 c31 61 59 109 64 106 4 -3 30 -53 56 -111 l48 -105 289 0 288 0 0 70 0 70 -75 0 -75 0 0 254 c0 207 -3 256 -14 265 -8 7 -37 11 -68 9 l-53 -3 -3 -262 -2 -263 -75 0 -75 0 0 -42 c0 -25 -4 -38 -9 -32 -5 5 -45 79 -90 165 l-81 156 0 135 c0 100 -3 137 -12 140 -20 7 -91 8 -105 2z"/>
 <path d="M1970 658 c-19 -7 -20 -18 -20 -333 l0 -325 65 0 64 0 3 122 3 123 87 3 87 3 3 -123 3 -123 65 0 65 0 3 319 c1 187 -2 323 -7 330 -7 9 -75 13 -123 7 -5 -1 -8 -62 -8 -136 l0 -135 -82 0 c-46 0 -89 4 -96 9 -10 6 -12 38 -10 134 l3 125 -43 4 c-23 2 -52 0 -62 -4z"/>
 <path d="M2493 663 c-10 -4 -13 -80 -13 -334 l0 -329 208 2 207 3 3 44 c7 93 10 91 -143 91 l-135 0 0 55 0 55 124 0 c138 0 136 -1 136 70 0 71 2 70 -136 70 l-124 0 0 65 0 64 143 3 142 3 3 63 c3 59 2 63 -23 72 -26 10 -369 13 -392 3z"/>
 <path d="M2983 663 c-10 -4 -13 -80 -13 -334 l0 -330 174 3 c158 3 177 5 202 24 52 39 68 70 72 143 5 89 -10 132 -60 175 l-40 35 29 43 c16 24 50 84 76 134 55 109 52 117 -43 112 l-63 -3 -63 -114 c-76 -136 -88 -151 -126 -151 l-28 0 0 129 c0 125 -1 129 -22 135 -27 7 -78 7 -95 -1z m285 -425 c7 -7 12 -27 12 -45 0 -43 -21 -53 -109 -53 l-71 0 0 55 0 55 78 0 c47 0 83 -5 90 -12z"/>
 </g>

</svg>